<svg width="16" height="16" viewBox="0 0 16 16" fill="none" xmlns="http://www.w3.org/2000/svg">
<rect width="16" height="16" rx="2" fill="currentColor"/>
<path d="M4 8.5C4.27614 8.5 4.5 8.27614 4.5 8C4.5 7.72386 4.27614 7.5 4 7.5C3.72386 7.5 3.5 7.72386 3.5 8C3.5 8.27614 3.72386 8.5 4 8.5Z" fill="white"/>
<path d="M4 5.5C4.27614 5.5 4.5 5.27614 4.5 5C4.5 4.72386 4.27614 4.5 4 4.5C3.72386 4.5 3.5 4.72386 3.5 5C3.5 5.27614 3.72386 5.5 4 5.5Z" fill="white"/>
<path d="M4 11.5C4.27614 11.5 4.5 11.2761 4.5 11C4.5 10.7239 4.27614 10.5 4 10.5C3.72386 10.5 3.5 10.7239 3.5 11C3.5 11.2761 3.72386 11.5 4 11.5Z" fill="white"/>
<path d="M12.5 8L6.5 8M12.5 5L6.5 5M12.5 11L6.5 11M4.5 8C4.5 8.27614 4.27614 8.5 4 8.5C3.72386 8.5 3.5 8.27614 3.5 8C3.5 7.72386 3.72386 7.5 4 7.5C4.27614 7.5 4.5 7.72386 4.5 8ZM4.5 5C4.5 5.27614 4.27614 5.5 4 5.5C3.72386 5.5 3.5 5.27614 3.5 5C3.5 4.72386 3.72386 4.5 4 4.5C4.27614 4.5 4.5 4.72386 4.5 5ZM4.5 11C4.5 11.2761 4.27614 11.5 4 11.5C3.72386 11.5 3.5 11.2761 3.5 11C3.5 10.7239 3.72386 10.5 4 10.5C4.27614 10.5 4.5 10.7239 4.5 11Z" stroke="white" stroke-width="1.5" stroke-linecap="round" stroke-linejoin="round"/>
</svg>
