<svg width="24" height="24" viewBox="0 0 24 24" fill="none" xmlns="http://www.w3.org/2000/svg">
<path d="M6.33301 7.66797C6.33301 6.26784 6.33301 5.56777 6.60549 5.03299C6.84517 4.56259 7.22763 4.18014 7.69803 3.94045C8.23281 3.66797 8.93288 3.66797 10.333 3.66797H13.0095C13.621 3.66797 13.9267 3.66797 14.2144 3.73704C14.4695 3.79829 14.7134 3.8993 14.9371 4.03637C15.1893 4.19097 15.4055 4.40716 15.8379 4.83954L18.4948 7.4964C18.9271 7.92877 19.1433 8.14496 19.2979 8.39726C19.435 8.62094 19.536 8.8648 19.5973 9.11989C19.6663 9.40761 19.6663 9.71335 19.6663 10.3248V16.3346C19.6663 17.7348 19.6663 18.4348 19.3939 18.9696C19.1542 19.44 18.7717 19.8225 18.3013 20.0622C17.7665 20.3346 17.0665 20.3346 15.6663 20.3346H10.333C8.93288 20.3346 8.23281 20.3346 7.69803 20.0622C7.22763 19.8225 6.84517 19.44 6.60549 18.9696C6.33301 18.4348 6.33301 17.7348 6.33301 16.3346V7.66797Z" fill="white"/>
<path d="M14.6663 3.89252V7.33464C14.6663 7.80135 14.6663 8.0347 14.7572 8.21296C14.8371 8.36976 14.9645 8.49725 15.1213 8.57714C15.2996 8.66797 15.533 8.66797 15.9997 8.66797H19.4418M19.6663 10.3248V16.3346C19.6663 17.7348 19.6663 18.4348 19.3939 18.9696C19.1542 19.44 18.7717 19.8225 18.3013 20.0622C17.7665 20.3346 17.0665 20.3346 15.6663 20.3346H10.333C8.93288 20.3346 8.23281 20.3346 7.69803 20.0622C7.22763 19.8225 6.84517 19.44 6.60549 18.9696C6.33301 18.4348 6.33301 17.7348 6.33301 16.3346V7.66797C6.33301 6.26784 6.33301 5.56777 6.60549 5.03299C6.84517 4.56259 7.22763 4.18014 7.69803 3.94045C8.23281 3.66797 8.93288 3.66797 10.333 3.66797H13.0095C13.621 3.66797 13.9267 3.66797 14.2144 3.73704C14.4695 3.79829 14.7134 3.8993 14.9371 4.03637C15.1893 4.19097 15.4055 4.40716 15.8379 4.83954L18.4948 7.4964C18.9271 7.92877 19.1433 8.14496 19.2979 8.39726C19.435 8.62094 19.536 8.8648 19.5973 9.11989C19.6663 9.40761 19.6663 9.71335 19.6663 10.3248Z" stroke="#A9AABF" stroke-linecap="round" stroke-linejoin="round"/>
<rect x="2" y="10" width="13" height="8" rx="1" fill="#1DAA7F"/>
<path d="M5.2483 14.326L6.3163 16H5.5423L4.8283 14.878L4.1563 16H3.4423L4.5103 14.374L3.4423 12.694H4.2163L4.9303 13.816L5.6023 12.694H6.3163L5.2483 14.326ZM7.33045 11.56V16H6.64645V11.56H7.33045ZM9.24848 16.054C8.98848 16.054 8.75448 16.008 8.54648 15.916C8.34248 15.82 8.18048 15.692 8.06048 15.532C7.94048 15.368 7.87648 15.186 7.86848 14.986H8.57648C8.58848 15.126 8.65448 15.244 8.77448 15.34C8.89848 15.432 9.05248 15.478 9.23648 15.478C9.42848 15.478 9.57648 15.442 9.68048 15.37C9.78848 15.294 9.84248 15.198 9.84248 15.082C9.84248 14.958 9.78248 14.866 9.66248 14.806C9.54648 14.746 9.36048 14.68 9.10448 14.608C8.85648 14.54 8.65448 14.474 8.49848 14.41C8.34248 14.346 8.20648 14.248 8.09048 14.116C7.97848 13.984 7.92248 13.81 7.92248 13.594C7.92248 13.418 7.97448 13.258 8.07848 13.114C8.18248 12.966 8.33048 12.85 8.52248 12.766C8.71848 12.682 8.94248 12.64 9.19448 12.64C9.57048 12.64 9.87248 12.736 10.1005 12.928C10.3325 13.116 10.4565 13.374 10.4725 13.702H9.78848C9.77648 13.554 9.71648 13.436 9.60848 13.348C9.50048 13.26 9.35448 13.216 9.17048 13.216C8.99048 13.216 8.85248 13.25 8.75648 13.318C8.66048 13.386 8.61248 13.476 8.61248 13.588C8.61248 13.676 8.64448 13.75 8.70848 13.81C8.77248 13.87 8.85048 13.918 8.94248 13.954C9.03448 13.986 9.17048 14.028 9.35048 14.08C9.59048 14.144 9.78648 14.21 9.93848 14.278C10.0945 14.342 10.2285 14.438 10.3405 14.566C10.4525 14.694 10.5105 14.864 10.5145 15.076C10.5145 15.264 10.4625 15.432 10.3585 15.58C10.2545 15.728 10.1065 15.844 9.91448 15.928C9.72648 16.012 9.50448 16.054 9.24848 16.054ZM12.4896 14.326L13.5576 16H12.7836L12.0696 14.878L11.3976 16H10.6836L11.7516 14.374L10.6836 12.694H11.4576L12.1716 13.816L12.8436 12.694H13.5576L12.4896 14.326Z" fill="white"/>
</svg>
