<svg width="24" height="24" viewBox="0 0 24 24" fill="none" xmlns="http://www.w3.org/2000/svg">
<path d="M2.65386 18.6025L10.8787 4.39586C11.3333 3.6107 11.5606 3.21811 11.8571 3.08626C12.1158 2.97125 12.4111 2.97125 12.6697 3.08626C12.9663 3.21811 13.1935 3.61069 13.6481 4.39586L21.873 18.6025C22.3292 19.3905 22.5573 19.7845 22.5236 20.1078C22.4942 20.3899 22.3464 20.6462 22.1171 20.8129C21.8541 21.0041 21.3988 21.0041 20.4883 21.0041H4.03854C3.12802 21.0041 2.67276 21.0041 2.4098 20.8129C2.18044 20.6462 2.03267 20.3899 2.00326 20.1078C1.96955 19.7845 2.19765 19.3905 2.65386 18.6025Z" fill="#FCC850"/>
<path d="M12.2634 9.50414V13.5041M12.2634 17.5041H12.2734M10.8787 4.39586L2.65386 18.6025C2.19765 19.3905 1.96955 19.7845 2.00326 20.1078C2.03267 20.3899 2.18044 20.6462 2.4098 20.8129C2.67276 21.0041 3.12802 21.0041 4.03854 21.0041H20.4883C21.3988 21.0041 21.8541 21.0041 22.1171 20.8129C22.3464 20.6462 22.4942 20.3899 22.5236 20.1078C22.5573 19.7845 22.3292 19.3905 21.873 18.6025L13.6481 4.39586C13.1935 3.61069 12.9663 3.21811 12.6697 3.08626C12.4111 2.97125 12.1158 2.97125 11.8571 3.08626C11.5606 3.21811 11.3333 3.6107 10.8787 4.39586Z" stroke="#FCC850" stroke-width="2" stroke-linecap="round" stroke-linejoin="round"/>
<path d="M12 9.5V13.5M12 17.5H12.01" stroke="white" stroke-width="2" stroke-linecap="round" stroke-linejoin="round"/>
</svg>
