<svg width="512" height="512" viewBox="0 0 512 512" fill="none" xmlns="http://www.w3.org/2000/svg">
<g clip-path="url(#clip0_5_16)">
<rect width="512" height="512" rx="60" fill="url(#paint0_linear_5_16)"/>
<rect x="425" y="206" width="339" height="120" rx="60" transform="rotate(-180 425 206)" fill="url(#paint1_linear_5_16)"/>
<rect x="305" y="425" width="339" height="120" rx="60" transform="rotate(-90 305 425)" fill="url(#paint2_linear_5_16)"/>
<path d="M365.775 86.0049C376.358 86.1389 386.28 89.0126 394.865 93.9492C395.284 94.1901 395.7 94.4359 396.112 94.6865C396.731 95.0623 397.342 95.4494 397.945 95.8467C398.348 96.1116 398.747 96.381 399.143 96.6553C401.12 98.0262 403.012 99.5127 404.807 101.105C405.166 101.424 405.521 101.747 405.872 102.074C406.926 103.055 407.945 104.074 408.926 105.128C409.253 105.479 409.576 105.834 409.895 106.193C412.284 108.886 414.434 111.795 416.313 114.888C416.564 115.3 416.81 115.716 417.051 116.135C422.108 124.929 425 135.127 425 146C425 179.137 398.137 206 365 206H305V146C305 112.863 331.863 86 365 86C365.259 86 365.517 86.0016 365.775 86.0049Z" fill="white"/>
<path d="M365.775 86.0049C376.358 86.1389 386.28 89.0126 394.865 93.9492C395.284 94.1901 395.7 94.4359 396.112 94.6865C396.731 95.0623 397.342 95.4494 397.945 95.8467C398.348 96.1116 398.747 96.381 399.143 96.6553C401.12 98.0262 403.012 99.5127 404.807 101.105C405.166 101.424 405.521 101.747 405.872 102.074C406.926 103.055 407.945 104.074 408.926 105.128C409.253 105.479 409.576 105.834 409.895 106.193C412.284 108.886 414.434 111.795 416.313 114.888C416.564 115.3 416.81 115.716 417.051 116.135C422.108 124.929 425 135.127 425 146C425 179.137 398.137 206 365 206H305V146C305 112.863 331.863 86 365 86C365.259 86 365.517 86.0016 365.775 86.0049Z" fill="white"/>
<circle cx="202.5" cy="311.5" r="55.5" fill="url(#paint3_linear_5_16)"/>
</g>
<defs>
<linearGradient id="paint0_linear_5_16" x1="0" y1="0" x2="611.5" y2="636.5" gradientUnits="userSpaceOnUse">
<stop stop-color="#3B51CC"/>
<stop offset="1" stop-color="#A3BAED"/>
</linearGradient>
<linearGradient id="paint1_linear_5_16" x1="764" y1="266" x2="425" y2="266" gradientUnits="userSpaceOnUse">
<stop stop-color="white" stop-opacity="0.5"/>
<stop offset="1" stop-color="white"/>
</linearGradient>
<linearGradient id="paint2_linear_5_16" x1="644" y1="485" x2="305" y2="485" gradientUnits="userSpaceOnUse">
<stop stop-color="white"/>
<stop offset="1" stop-color="white" stop-opacity="0.5"/>
</linearGradient>
<linearGradient id="paint3_linear_5_16" x1="172.5" y1="256" x2="217" y2="367" gradientUnits="userSpaceOnUse">
<stop stop-color="white"/>
<stop offset="1" stop-color="white" stop-opacity="0.5"/>
</linearGradient>
<clipPath id="clip0_5_16">
<rect width="512" height="512" rx="60" fill="white"/>
</clipPath>
</defs>
</svg>
