<svg width="32" height="32" viewBox="0 0 32 32" fill="none" xmlns="http://www.w3.org/2000/svg">
<rect x="32" y="11.3281" width="32" height="11.3274" rx="5.66372" transform="rotate(-180 32 11.3281)" fill="url(#paint0_linear_235_5279)"/>
<rect x="20.6729" y="32" width="32" height="11.3274" rx="5.66372" transform="rotate(-90 20.6729 32)" fill="url(#paint1_linear_235_5279)"/>
<path d="M26.6279 0.0078125C29.6206 0.159366 32.001 2.63374 32.001 5.66406C32.0008 8.79184 29.4647 11.3271 26.3369 11.3271H20.6729V5.66406C20.6729 2.53608 23.2089 1.36729e-07 26.3369 0C26.4345 2.40841e-06 26.5315 0.00293074 26.6279 0.0078125Z" fill="white"/>
<path d="M26.6279 0.0078125C29.6206 0.159366 32.001 2.63374 32.001 5.66406C32.0008 8.79184 29.4647 11.3271 26.3369 11.3271H20.6729V5.66406C20.6729 2.53608 23.2089 1.36729e-07 26.3369 0C26.4345 2.40841e-06 26.5315 0.00293074 26.6279 0.0078125Z" fill="white"/>
<circle cx="10.9967" cy="21.2858" r="5.23894" fill="url(#paint2_linear_235_5279)"/>
<defs>
<linearGradient id="paint0_linear_235_5279" x1="64" y1="16.9918" x2="32" y2="16.9918" gradientUnits="userSpaceOnUse">
<stop stop-color="white" stop-opacity="0.5"/>
<stop offset="1" stop-color="white"/>
</linearGradient>
<linearGradient id="paint1_linear_235_5279" x1="52.6729" y1="37.6637" x2="20.6729" y2="37.6637" gradientUnits="userSpaceOnUse">
<stop stop-color="white"/>
<stop offset="1" stop-color="white" stop-opacity="0.5"/>
</linearGradient>
<linearGradient id="paint2_linear_235_5279" x1="8.16489" y1="16.0469" x2="12.3655" y2="26.5248" gradientUnits="userSpaceOnUse">
<stop stop-color="white"/>
<stop offset="1" stop-color="white" stop-opacity="0.5"/>
</linearGradient>
</defs>
</svg>
