<svg width="2018" height="339" viewBox="0 0 2018 339" fill="none" xmlns="http://www.w3.org/2000/svg">
<g clip-path="url(#clip0_478_1821)">
<rect x="339" y="120" width="339" height="120" rx="60" transform="rotate(-180 339 120)" fill="url(#paint0_linear_478_1821)"/>
<rect x="219" y="339" width="339" height="120" rx="60" transform="rotate(-90 219 339)" fill="url(#paint1_linear_478_1821)"/>
<path d="M279.775 0.00488281C290.358 0.138908 300.28 3.01259 308.865 7.94922C309.284 8.19009 309.7 8.4359 310.112 8.68652C310.731 9.06234 311.342 9.44939 311.945 9.84668C312.348 10.1116 312.747 10.381 313.143 10.6553C315.12 12.0262 317.012 13.5127 318.807 15.1055C319.166 15.4241 319.521 15.7472 319.872 16.0742C320.926 17.0554 321.945 18.074 322.926 19.1279C323.253 19.4792 323.576 19.8343 323.895 20.1934C326.284 22.886 328.434 25.7952 330.313 28.8877C330.564 29.3002 330.81 29.7159 331.051 30.1348C336.108 38.9294 339 49.127 339 60C339 93.1371 312.137 120 279 120H219V60C219 26.8629 245.863 1.44847e-06 279 0C279.259 1.90339e-08 279.517 0.0016143 279.775 0.00488281Z" fill="#3946BC"/>
<circle cx="116.5" cy="225.5" r="55.5" fill="url(#paint2_linear_478_1821)"/>
<path d="M500.922 21.4667H733.767C745.033 21.4667 750.667 27.1 750.667 38.3667C750.667 75.9222 748.789 90.9444 739.4 137.889L690.578 134.133L694.333 113.478C644.76 119.862 564.767 124.744 499.044 124.744L495.289 81.5556C566.269 81.5556 651.896 78.9267 699.967 74.0444L701.844 64.6555H504.678L500.922 21.4667ZM478.389 149.156H776.956V190.467H478.389V149.156ZM502.8 205.489H750.667V289.989H551.622V301.256H752.544L756.3 338.811H519.7C508.433 338.811 502.8 333.178 502.8 321.911V254.311H701.844V243.044H502.8V205.489ZM792.441 100.333H878.819V72.1667H794.319L790.564 27.1H908.864C920.13 27.1 925.764 32.7333 925.764 44V139.767H841.264V169.811C882.575 168.309 914.872 163.427 940.786 156.667L944.541 203.611C908.488 212.249 866.426 216.004 809.341 216.756C798.075 216.756 792.441 211.122 792.441 199.856V100.333ZM955.808 15.8333H1002.75V77.8H1030.92V15.8333H1077.86V229.9H1030.92V122.867H1002.75V207.367H955.808V15.8333ZM931.397 214.878H980.219V226.144C980.219 269.333 1051.57 291.867 1096.64 299.378L1072.23 340.689C1040.68 332.802 986.979 317.404 955.808 282.478C924.637 318.531 870.932 334.68 839.386 342.567L814.975 301.256C860.041 293.744 931.397 269.333 931.397 226.144V214.878Z" fill="#363744"/>
<path d="M1362.2 36.4889C1416.66 36.4889 1448.58 70.2889 1448.58 109.722C1448.58 134.133 1435.43 154.789 1412.9 167.933C1441.07 182.956 1457.97 207.367 1457.97 237.411C1457.97 282.478 1424.17 318.156 1364.08 318.156H1266.43C1255.17 318.156 1249.53 312.522 1249.53 301.256V36.4889H1362.2ZM1303.99 81.5556V149.156H1356.57C1379.1 149.156 1394.12 137.889 1394.12 115.356C1394.12 92.8222 1379.1 81.5556 1356.57 81.5556H1303.99ZM1303.99 192.344V273.089H1362.2C1388.49 273.089 1403.51 256.189 1403.51 233.656C1403.51 211.122 1388.49 192.344 1362.2 192.344H1303.99ZM1569.45 321.911C1509.36 321.911 1466.17 278.722 1466.17 220.511C1466.17 164.178 1509.36 120.989 1565.69 120.989C1620.15 120.989 1661.46 162.3 1661.46 216.756C1661.46 224.267 1659.58 229.9 1657.7 239.289H1516.87C1522.5 263.7 1543.16 276.844 1569.45 276.844C1588.23 276.844 1605.13 271.211 1616.39 258.067L1648.31 288.111C1629.54 308.767 1601.37 321.911 1569.45 321.911ZM1565.69 164.178C1541.28 164.178 1522.5 177.322 1516.87 199.856H1610.76C1605.13 175.444 1590.1 164.178 1565.69 164.178ZM1703.49 171.689H1660.3L1656.55 124.744H1703.49V45.8778H1756.07V124.744H1801.14V171.689H1756.07V318.156H1703.49V171.689ZM1891.9 321.911C1839.33 321.911 1799.89 276.844 1799.89 220.511C1799.89 164.178 1839.33 120.989 1891.9 120.989C1914.44 120.989 1935.09 130.378 1948.24 143.522V124.744H1998.94V318.156H1948.24V299.378C1935.09 312.522 1914.44 321.911 1891.9 321.911ZM1901.29 273.089C1929.46 273.089 1950.11 250.556 1950.11 220.511C1950.11 190.467 1929.46 169.811 1901.29 169.811C1873.13 169.811 1852.47 190.467 1852.47 220.511C1852.47 250.556 1873.13 273.089 1901.29 273.089Z" fill="#757693"/>
</g>
<defs>
<linearGradient id="paint0_linear_478_1821" x1="678" y1="180" x2="339" y2="180" gradientUnits="userSpaceOnUse">
<stop stop-color="#3B51CC" stop-opacity="0.5"/>
<stop offset="1" stop-color="#3B51CC"/>
</linearGradient>
<linearGradient id="paint1_linear_478_1821" x1="558" y1="399" x2="219" y2="399" gradientUnits="userSpaceOnUse">
<stop stop-color="#3B51CC"/>
<stop offset="1" stop-color="#3B51CC" stop-opacity="0.5"/>
</linearGradient>
<linearGradient id="paint2_linear_478_1821" x1="85" y1="182" x2="150" y2="268.5" gradientUnits="userSpaceOnUse">
<stop stop-color="#3946BC"/>
<stop offset="1" stop-color="#3946BC" stop-opacity="0.5"/>
</linearGradient>
<clipPath id="clip0_478_1821">
<rect width="2018" height="339" fill="white"/>
</clipPath>
</defs>
</svg>
